<svg width="30" height="30" viewBox="0 0 30 30" fill="none" xmlns="http://www.w3.org/2000/svg">
<g clip-path="url(#clip0_791_3283)">
<path d="M15 0C6.70945 0 0 6.70881 0 15C0 23.2906 6.70881 30 15 30C23.2905 30 30 23.2912 30 15C30 6.70939 23.2912 0 15 0ZM15 27.6562C8.00484 27.6562 2.34375 21.9957 2.34375 15C2.34375 8.00478 8.00432 2.34375 15 2.34375C21.9952 2.34375 27.6562 8.00432 27.6562 15C27.6562 21.9952 21.9957 27.6562 15 27.6562Z" fill="black"/>
<path d="M20.1328 18.4749L16.6581 15.0002L20.1328 11.5254C20.5905 11.0678 20.5905 10.3258 20.1329 9.86816C19.6752 9.41048 18.9332 9.41054 18.4756 9.86816L15.0009 13.3429L11.5261 9.86816C11.0685 9.41048 10.3264 9.41048 9.86882 9.86816C9.4112 10.3258 9.4112 11.0678 9.86887 11.5254L13.3436 15.0002L9.86887 18.4749C9.4112 18.9326 9.41114 19.6745 9.86882 20.1321C10.3266 20.5899 11.0686 20.5897 11.5261 20.1321L15.0009 16.6574L18.4756 20.1321C18.9331 20.5898 19.6752 20.5898 20.1329 20.1321C20.5906 19.6745 20.5905 18.9325 20.1328 18.4749Z" fill="black"/>
</g>
<defs>
<clipPath id="clip0_791_3283">
<rect width="30" height="30" fill="white"/>
</clipPath>
</defs>
</svg>
